<?xml version="1.0" encoding="utf-8"?>
<!-- Generator: Adobe Illustrator 16.0.0, SVG Export Plug-In . SVG Version: 6.00 Build 0)  -->
<!DOCTYPE svg PUBLIC "-//W3C//DTD SVG 1.1//EN" "http://www.w3.org/Graphics/SVG/1.1/DTD/svg11.dtd">
<svg version="1.1" id="Layer_2" xmlns="http://www.w3.org/2000/svg" xmlns:xlink="http://www.w3.org/1999/xlink" x="0px" y="0px"
	 width="792px" height="1224px" viewBox="0 0 792 1224" enable-background="new 0 0 792 1224" xml:space="preserve">
<path d="M485.594,215.652l11.76-7.111l7.066-55.514c0,0-6.376-10.664-6.347-9.829l-14.611,11.396l-6.126,53.809L485.594,215.652z"/>
<path d="M474.148,298.393l11.749-7.401l6.982-57.92c0,0-6.392-11.138-6.361-10.265l-14.595,11.871l-6.045,56.137L474.148,298.393z"
	/>
<path d="M415.833,141.251L424.677,152l58.875-0.213c0,0,10.381-7.719,9.51-7.581l-13.666-13.022l-56.977,0.924L415.833,141.251z"/>
<path d="M414.333,215.604l8.346,10.828l54.77,0.438c0,0,9.572-7.591,8.764-7.463l-12.857-13.15l-52.995,0.293L414.333,215.604z"/>
<path d="M400.833,298.439l8.486,10.806l55.922,0.255c0,0,9.8-7.627,8.974-7.496l-13.085-13.115l-54.113,0.471L400.833,298.439z"/>
<path d="M398.648,293.194l11.749-7.401l6.982-57.92c0,0-6.392-11.138-6.361-10.265l-14.595,11.871l-6.045,56.137L398.648,293.194z"
	/>
<path d="M405.906,217.589l10.724-7.075l6.29-55.486c0,0-5.858-10.682-5.829-9.847l-13.316,11.351l-5.436,53.785L405.906,217.589z"/>
<path d="M227.594,212.899l11.76-7.111l7.066-55.514c0,0-6.376-10.664-6.347-9.829l-14.611,11.396l-6.126,53.809L227.594,212.899z"/>
<path d="M216.148,295.64l11.749-7.401l6.982-57.92c0,0-6.392-11.138-6.361-10.265l-14.595,11.871l-6.045,56.137L216.148,295.64z"/>
<path d="M157.833,138.498l8.844,10.749l58.875-0.213c0,0,10.381-7.719,9.51-7.581l-13.666-13.022l-56.977,0.924L157.833,138.498z"/>
<path d="M156.333,212.852l8.346,10.828l54.77,0.438c0,0,9.572-7.591,8.764-7.463l-12.857-13.15l-52.995,0.293L156.333,212.852z"/>
<path d="M142.833,295.687l8.486,10.806l55.922,0.255c0,0,9.8-7.627,8.974-7.496l-13.085-13.115l-54.113,0.471L142.833,295.687z"/>
<path d="M140.648,290.441l11.749-7.401l6.982-57.92c0,0-6.392-11.138-6.361-10.265l-14.595,11.871l-6.045,56.137L140.648,290.441z"
	/>
<path d="M147.906,214.836l10.724-7.075l6.29-55.486c0,0-5.858-10.682-5.829-9.847l-13.316,11.351l-5.435,53.785L147.906,214.836z"/>
<path d="M332.804,212.87l11.76-7.111l7.066-55.514c0,0-6.376-10.664-6.347-9.829l-14.611,11.396l-6.126,53.809L332.804,212.87z"/>
<path d="M321.358,295.61l11.749-7.401l6.982-57.92c0,0-6.392-11.138-6.361-10.265l-14.595,11.871l-6.045,56.137L321.358,295.61z"/>
<path d="M263.043,138.469l8.844,10.749l58.875-0.213c0,0,10.381-7.719,9.51-7.581l-13.666-13.022l-56.977,0.924L263.043,138.469z"/>
<path d="M261.543,212.822l8.346,10.828l54.77,0.438c0,0,9.572-7.591,8.764-7.463l-12.857-13.15l-52.995,0.293L261.543,212.822z"/>
<path d="M248.043,295.657l8.486,10.806l55.922,0.255c0,0,9.8-7.627,8.974-7.496l-13.085-13.115l-54.113,0.471L248.043,295.657z"/>
<path d="M245.858,290.412l11.749-7.401l6.982-57.92c0,0-6.392-11.138-6.361-10.265l-14.595,11.871l-6.045,56.137L245.858,290.412z"
	/>
<path d="M253.116,214.807l10.724-7.075l6.29-55.486c0,0-5.858-10.682-5.829-9.847l-13.316,11.351l-5.435,53.785L253.116,214.807z"/>
<path d="M599.635,215.286l11.76-7.111l7.066-55.514c0,0-6.376-10.664-6.347-9.829l-14.611,11.396l-6.126,53.809L599.635,215.286z"/>
<path d="M588.189,298.026l11.749-7.401l6.982-57.92c0,0-6.392-11.138-6.361-10.265l-14.595,11.871l-6.045,56.137L588.189,298.026z"
	/>
<path d="M529.874,140.885l8.844,10.749l58.875-0.213c0,0,10.381-7.719,9.51-7.581l-13.666-13.022l-56.977,0.924L529.874,140.885z"/>
<path d="M528.374,215.238l8.346,10.828l54.77,0.438c0,0,9.572-7.591,8.764-7.463l-12.857-13.15l-52.995,0.293L528.374,215.238z"/>
<path d="M514.874,298.073l8.486,10.806l55.922,0.255c0,0,9.8-7.627,8.974-7.496l-13.085-13.115l-54.113,0.471L514.874,298.073z"/>
<path d="M512.689,292.828l11.749-7.401l6.982-57.92c0,0-6.392-11.138-6.361-10.265l-14.595,11.871l-6.045,56.137L512.689,292.828z"
	/>
<path d="M519.947,217.223l10.724-7.075l6.29-55.486c0,0-5.858-10.682-5.829-9.847l-13.316,11.351l-5.436,53.785L519.947,217.223z"/>
<polygon points="374.33,226.87 359.33,242.87 369.33,260.345 385.336,243.607 "/>
<polygon points="379.373,186.737 364.373,202.737 374.373,220.212 390.379,203.475 "/>
</svg>
