<?xml version="1.0" encoding="utf-8"?>
<!-- Generator: Adobe Illustrator 24.2.3, SVG Export Plug-In . SVG Version: 6.00 Build 0)  -->
<svg version="1.1" id="Layer_2_1_" xmlns="http://www.w3.org/2000/svg" xmlns:xlink="http://www.w3.org/1999/xlink" x="0px" y="0px"
	 width="486.1px" height="181.1px" viewBox="0 0 486.1 181.1" style="enable-background:new 0 0 486.1 181.1;" xml:space="preserve"
	>
<path id="_x34_-7" d="M382.5,169.7l8.5,10.8l55.9,0.3c0,0,9.8-7.6,9-7.5l-13.1-13.1l-54.1,0.5L382.5,169.7z"/>
<path id="_x34_-6" d="M455.8,169.6l11.7-7.4l7-57.9c0,0-6.4-11.1-6.4-10.3l-14.6,11.9l-6,56.1L455.8,169.6z"/>
<path id="_x34_-5" d="M380.3,164.4l11.7-7.4l7-57.9c0,0-6.4-11.1-6.4-10.3l-14.6,11.9l-6,56.1L380.3,164.4z"/>
<path id="_x34_-4" d="M396,86.8l8.3,10.8l54.8,0.4c0,0,9.6-7.6,8.8-7.5L455,77.5l-53,0.3L396,86.8z"/>
<path id="_x34_-3" d="M467.3,86.9l11.8-7.1l7.1-55.5c0,0-6.4-10.7-6.3-9.8l-14.6,11.4L459,79.6L467.3,86.9z"/>
<path id="_x34_-2" d="M387.6,88.8l10.7-7.1l6.3-55.5c0,0-5.9-10.7-5.8-9.8l-13.3,11.4L380,81.5L387.6,88.8z"/>
<path id="_x34_-1" d="M397.5,12.5l8.8,10.7l58.9-0.2c0,0,10.4-7.7,9.5-7.6l-13.7-13l-57,0.9L397.5,12.5z"/>
<path id="_x33_-7" d="M268.5,170l8.5,10.8l55.9,0.3c0,0,9.8-7.6,9-7.5l-13.1-13.1l-54.1,0.5L268.5,170z"/>
<path id="_x33_-6" d="M341.8,170l11.7-7.4l7-57.9c0,0-6.4-11.1-6.4-10.3l-14.6,11.9l-6,56.1L341.8,170z"/>
<path id="_x33_-5" d="M266.3,164.8l11.7-7.4l7-57.9c0,0-6.4-11.1-6.4-10.3L264,101.1l-6,56.1L266.3,164.8z"/>
<path id="_x33_-4" d="M282,87.2l8.3,10.8l54.8,0.4c0,0,9.6-7.6,8.8-7.5L341,77.9l-53,0.3L282,87.2z"/>
<path id="_x33_-3" d="M353.2,87.2l11.8-7.1l7.1-55.5c0,0-6.4-10.7-6.3-9.8l-14.6,11.4L345,80L353.2,87.2z"/>
<path id="_x33_-2" d="M273.5,89.2l10.7-7.1l6.3-55.5c0,0-5.9-10.7-5.8-9.8l-13.3,11.4L266,81.9L273.5,89.2z"/>
<path id="_x33_-1" d="M283.5,12.8l8.8,10.7l58.9-0.2c0,0,10.4-7.7,9.5-7.6L347,2.8l-57,0.9L283.5,12.8z"/>
<path id="_x32_-7" d="M115.7,167.3l8.5,10.8l55.9,0.3c0,0,9.8-7.6,9-7.5L176,157.7l-54.1,0.5L115.7,167.3z"/>
<path id="_x32_-6" d="M189,167.2l11.7-7.4l7-57.9c0,0-6.4-11.1-6.4-10.3l-14.6,11.9l-6,56.1L189,167.2z"/>
<path id="_x32_-5" d="M113.5,162l11.7-7.4l7-57.9c0,0-6.4-11.1-6.4-10.3l-14.6,11.9l-6,56.1L113.5,162z"/>
<path id="_x32_-4" d="M129.2,84.4l8.3,10.8l54.8,0.4c0,0,9.6-7.6,8.8-7.5l-12.9-13.1l-53,0.3L129.2,84.4z"/>
<path id="_x32_-3" d="M200.4,84.5l11.8-7.1l7.1-55.5c0,0-6.4-10.7-6.3-9.8l-14.6,11.4l-6.1,53.8L200.4,84.5z"/>
<path id="_x32_-2" d="M120.7,86.4l10.7-7.1l6.3-55.5c0,0-5.9-10.7-5.8-9.8l-13.3,11.4l-5.4,53.8L120.7,86.4z"/>
<path id="_x32_-1" d="M130.7,10.1l8.8,10.7l58.9-0.2c0,0,10.4-7.7,9.5-7.6L194.2,0l-57,0.9L130.7,10.1z"/>
<path id="_x31_-7" d="M10.5,167.3l8.5,10.8l55.9,0.3c0,0,9.8-7.6,9-7.5l-13.1-13.1l-54.1,0.5L10.5,167.3z"/>
<path id="_x31_-6" d="M83.8,167.2l11.7-7.4l7-57.9c0,0-6.4-11.1-6.4-10.3l-14.6,11.9l-6,56.1L83.8,167.2z"/>
<path id="_x31_-5" d="M8.3,162l11.7-7.4l7-57.9c0,0-6.4-11.1-6.4-10.3L6,98.3l-6,56.1L8.3,162z"/>
<path id="_x31_-4" d="M24,84.5l8.3,10.8l54.8,0.4c0,0,9.6-7.6,8.8-7.5L83,75.1l-53,0.3L24,84.5z"/>
<path id="_x31_-3" d="M95.2,84.5l11.8-7.1l7.1-55.5c0,0-6.4-10.7-6.3-9.8L93.1,23.4L87,77.2L95.2,84.5z"/>
<path id="_x31_-2" d="M15.5,86.4l10.7-7.1l6.3-55.5c0,0-5.9-10.7-5.8-9.8L13.4,25.4L8,79.2L15.5,86.4z"/>
<path id="_x31_-1" d="M25.5,10.1l8.8,10.7l58.9-0.2c0,0,10.4-7.7,9.5-7.6L89,0L32,1L25.5,10.1z"/>
<polygon id="c-2" points="242,98.5 227,114.5 237,131.9 253,115.2 "/>
<polygon id="c-1" points="247,58.3 232,74.3 242,91.8 258,75.1 "/>
</svg>
