<?xml version="1.0" encoding="utf-8"?>
<!-- Generator: Adobe Illustrator 24.2.3, SVG Export Plug-In . SVG Version: 6.00 Build 0)  -->
<svg version="1.1" id="Layer_1" xmlns="http://www.w3.org/2000/svg" xmlns:xlink="http://www.w3.org/1999/xlink" x="0px" y="0px"
	 width="746.9px" height="543.3px" viewBox="0 0 746.9 543.3" style="enable-background:new 0 0 746.9 543.3;" xml:space="preserve"
	>
<style type="text/css">
	.st0{fill:#ED2024;}
	.st1{fill:#349A46;}
	.st2{fill:#35459C;}
</style>
<g id="Layer_2_1_">
	<g id="master_copy">
		<g id="red">
			<path class="st0" d="M366.9,215.5l0.2,4.5c0,0.7,0,1.5,0.1,2.2c0.2,3.3,0.1,6.6,0.1,9.9c0,3-0.2,6-0.4,9.1
				c-0.7,9.6-2.3,19-5.5,28.1c-1.8,5.5-4.6,10.7-8.1,15.4c-6.1,8-15.5,12.8-25.5,13c-7.2,0.2-14-1.5-20.5-4.4
				c-5.7-2.6-11.1-5.8-16.1-9.7c-7-5.5-13.4-11.8-19.1-18.6c-6.7-8-13.1-16.4-18.9-25.2c-7.2-10.5-13.8-21.4-20.3-32.3
				c-8.2-13.8-16.2-27.8-24.1-41.8c-6.7-11.8-13.6-23.5-20.5-35.1c-4.1-6.8-8.1-13.7-12-20.7c-3.6-6.3-6.9-12.8-9.8-19.5
				c-1.3-3.1-2.4-6.4-3.3-9.7c-0.7-2.7-1.1-5.5-1.1-8.3c-0.1-4.6,2.1-9,5.8-11.7c2.2-1.6,4.6-2.8,7.2-3.7c3.6-1.2,7.2-2,10.9-2.5
				c2.3-0.3,4.6-0.5,6.9-0.7c3-0.2,5.9-0.2,8.9-0.1c7.6,0.2,15.1,1,22.6,2.3c11.9,2,23.6,5.1,34.9,9.3c16.2,6,31.4,14.4,45,24.9
				c14,10.9,26,24,35.6,38.9c7.1,11.1,12.9,23.1,17.1,35.7c1.9,5.7,3.6,11.4,5,17.3c1,4.4,2,8.9,2.7,13.3c0.5,2.8,0.9,5.6,1.3,8.5
				c0.5,3.5,0.7,7,1.1,10.5C366.8,214.9,366.8,215.3,366.9,215.5L366.9,215.5z"/>
		</g>
		<g id="green">
			<path class="st1" d="M343.2,294c17.2-6,35.2-10.2,52.8-14.7c16.8-4.3,33.3-9.6,50.1-13.8c18.6-4.7,37.5-9.1,56.8-9.6
				c9.3-0.2,20,0.4,28.1,5.3c7.9,4.9,12.6,13.2,14.6,22.2c4,17.8-1.7,39.7-12.8,54c-11.7,15.1-30.3,18.9-48.2,21.6
				c-19.1,2.9-38.8,3.3-57.4,9.1c-9.2,2.9-18.5,5.6-27.8,8.2c-9,2.5-18.5,4.4-27.9,3.7c-21-1.7-37.7-19.7-46.9-37.4
				c-4.7-9-9.6-21.1-6.1-31.3C322,300.8,334.1,297.4,343.2,294z"/>
		</g>
		<g id="blue">
			<path class="st2" d="M181.1,380.1c-11.7-0.5-23.5-0.5-35.2-1c-5.1-0.3-10.3-0.9-15-2.9c-4-1.8-7.8-4.3-11-7.4
				c-13.3-12.2-20.2-30.5-26.2-47.1c-7.9-21.9-13.2-44.8-17-67.7c-0.8-4.8-1.6-9.5-2.2-14.3c-0.1-0.7-0.3-2.9-0.3-2.9l2.2-1.1
				c7.3-3.7,14.7-7.3,22.1-10.8c20.7-9.8,41.8-19.2,64.2-24.5c19.9-4.7,42-5.8,60.2,5.2c16.5,9.9,26.6,27.4,33.5,44.8
				c8.2,20.7,12.9,42.9,12.6,65.2c-0.3,16.9-3.8,35.4-16.7,47.4c-14.8,13.8-37.2,16.2-56.6,16.9C190.9,380,186,380.1,181.1,380.1z"
				/>
		</g>
	</g>
</g>
<path d="M147.3,521.3c-10.4,0-17.7-3.8-22.5-7.9c-11.7-10-16.4-28.9-11.8-48.2c4.1-17.3,14.4-29.6,27.6-32.7l0.5-0.1
	c25-4.7,43.4-5.9,57.9-3.5c18.9,3,31.2,12.1,36.5,27.1l0.3,0.9l0.1,1c5,32.8,3.3,48.9-5.9,57.5c-9,8.4-21.1,5.8-32.8,3.2
	c-9.1-2-18.6-4.1-27.6-2C161,519.9,153.6,521.3,147.3,521.3z M145.2,452.2c-5.3,1.4-10.2,8.5-12.4,17.7c-2.8,11.6-0.6,23.1,5.2,28.1
	c6.3,5.4,16.9,2.7,24.7-0.6l0.7-0.3l0.7-0.2c13.9-3.6,27.1-0.7,37.7,1.7c4.5,1,12.9,2.9,14.6,1.8c0.2-0.2,4.9-4.3-0.1-38.6
	C212.4,452.4,200.3,441.8,145.2,452.2z"/>
<path d="M406.7,518.2c-14.4,0-22.1-3.5-24.7-4.9l-0.6-0.3l-0.5-0.4c-9.1-6.7-14.2-20.3-13.2-35.6c1.1-16.6,9.2-30.7,21.8-38
	c4.8-3.2,38.4-23.1,81.1,6.7l0.9,0.6l0.8,0.8c6.9,7.6,10.8,15.3,11.6,23.1c0.7,7.6-1.6,15-6.7,21.5c-4.1,5.1-16.8,17.7-47.1,23.8
	C420.8,517.5,413.1,518.2,406.7,518.2z M392.4,496c5,2.3,18.1,3,33.6-0.1c16.2-3.3,29.7-9.6,35.2-16.5c1.9-2.4,5.8-7.3-3.2-17.6
	c-33.2-22.5-57.1-6-57.4-5.8l-0.5,0.3l-0.5,0.3c-6.8,3.8-11.2,11.9-11.9,21.8C387.4,486.4,389.7,493.4,392.4,496z"/>
<path d="M132.5,417.3c-8.3,0-18.9-0.6-32.6-2c-23.6-2.4-45.6-6.2-47.4-6.5c-1.9-0.3-4.7-1.3-7.3-4.2c-3.7-4.1-7.6-12.5-5.8-40.5
	c2.1-32.1-9.1-102-9.2-102.8l20-3.2c0.5,3,11.6,72.9,9.4,107.3c-0.9,14-0.1,21,0.6,24.1c7.2,1.2,22.5,3.5,38.6,5.3
	c37.9,4.1,47.6,1.4,49.5,0.7c4.2-4.5,13.4-10.3,41.5-12.2c14.7-1,28-0.5,28.6-0.5l0.1,0l118.1,5.5c38.9-2.6,84.6-8,94.7-12.3
	c4.3-6.4,15.8-10.5,51.8-13.8c27.2-2.5,59.5-3.6,76.3-4c16.4-0.4,19.2-11.3,20.2-48.6c0.5-17.7,1.1-37.7,7.3-55
	c13.2-36.7,8.5-78.6,7.5-86.2c-5.9-14.4-2.9-38.1,9.2-72.3c7.2-20.4,15.5-38.2,18.4-44.2c0.3-3.8,2-8.3,5.7-12.5
	c12.3-13.9,41.4-19.4,89-16.6l-1.2,20.2c-61.7-3.6-72.1,8.8-73.3,10.7l0.4,2.1l-1.5,3c-16.2,32.9-35.5,86.4-27.8,102.6l0.6,1.3
	l0.2,1.5c0.3,2.1,8,52.1-8.3,97.5c-5.1,14.2-5.6,31.8-6.1,48.7c-0.5,16.2-0.9,31.4-5.3,43.6c-5.7,15.9-17.4,24.2-34.6,24.6
	c-66.4,1.7-104.1,6.3-112.4,10c-3.5,5.4-11.3,7.9-23.7,10.3c-8.9,1.8-21,3.5-35.9,5.2c-25.2,2.8-50.2,4.5-50.5,4.5l-0.6,0L217.6,403
	c-0.8,0-12.9-0.4-26,0.5c-24.1,1.6-28.6,5.9-28.6,5.9C159.6,413.3,153.9,417.3,132.5,417.3z"/>
<path d="M83.4,270.9l-9.1-18c20.4-10.3,67.4-20.5,117.2-31.2c52.7-11.4,112.5-24.3,132.2-36.4l1.6-1l1.8-0.3
	c23.8-4.5,51.8-0.5,81.4,3.7c48.7,7,103.8,14.9,156-12.3l9.3,17.9c-58,30.2-116.6,21.8-168.2,14.4c-27.1-3.9-52.8-7.6-73.1-4.2
	c-23.8,13.5-78.7,25.4-136.8,37.9C149.4,251.4,101.4,261.8,83.4,270.9z"/>
<path d="M115.4,309.8l-0.6-20.2c32.1-0.9,117.8-19.4,161.6-37.1l0.7-0.2c57.8-18.7,141.7-14.9,203-12.1c27.6,1.3,61.9,2.8,68.2-0.2
	c0,0-0.2,0.1-0.6,0.4l13,15.5c-9,7.5-30.2,6.9-81.5,4.5c-59.6-2.7-141.2-6.4-195.5,11C237.2,290.1,149.6,308.9,115.4,309.8z"/>
<path d="M129.7,363.5c0,0,1.1-0.7,1.9-2.4l-18.3-8.5c5.7-12.3,29-15.3,118.5-15.2c11.4,0,23.2,0,27.3-0.3l0.2-0.1l2-0.3
	c38-4.9,72.8-11.7,106.4-18.2c60.5-11.7,117.6-22.8,174.8-18.4l-1.5,20.2c-54.5-4.2-107.7,6.2-169.4,18.1
	c-33.6,6.5-68.4,13.2-106.6,18.2c-3.4,0.9-10,1-33.2,0.9c-18.7,0-42-0.1-62.4,0.8C137.1,359.9,130.7,362.9,129.7,363.5z"/>
</svg>
