<?xml version="1.0" encoding="utf-8"?>
<!-- Generator: Adobe Illustrator 24.2.3, SVG Export Plug-In . SVG Version: 6.00 Build 0)  -->
<svg version="1.1" id="Layer_1" xmlns="http://www.w3.org/2000/svg" xmlns:xlink="http://www.w3.org/1999/xlink" x="0px" y="0px"
	 width="594.5px" height="410.6px" viewBox="0 0 594.5 410.6" style="enable-background:new 0 0 594.5 410.6;" xml:space="preserve"
	>
<style type="text/css">
	.st0{fill:#ED2024;}
	.st1{fill:#349A46;}
	.st2{fill:#35459C;}
</style>
<g id="Layer_2_1_">
	<g id="master_copy">
		<g id="red">
			<path class="st0" d="M368.2,203.5l0.2,5.7c0,0.9,0,1.8,0.1,2.7c0.2,4.2,0.2,8.3,0.1,12.5c-0.1,3.8-0.2,7.6-0.5,11.4
				c-0.9,12.1-2.9,23.9-6.9,35.4c-2.3,7-5.8,13.5-10.2,19.4c-7.6,10.1-19.4,16.1-32.1,16.3c-9.1,0.3-17.6-1.9-25.8-5.5
				c-7.2-3.2-14-7.3-20.2-12.2c-8.8-6.9-16.9-14.8-24.1-23.4c-8.5-10.1-16.4-20.7-23.8-31.6c-9-13.2-17.4-26.9-25.6-40.6
				c-10.4-17.4-20.3-35-30.4-52.6c-8.5-14.8-17.1-29.6-25.8-44.2c-5.1-8.6-10.2-17.2-15.1-26c-4.6-8-8.7-16.2-12.3-24.6
				c-1.7-4-3.1-8-4.2-12.2c-0.9-3.4-1.4-6.9-1.3-10.5c-0.1-5.8,2.6-11.3,7.3-14.8c2.7-2,5.8-3.6,9-4.7c4.5-1.5,9.1-2.5,13.8-3.1
				c2.9-0.4,5.7-0.7,8.6-0.8c3.7-0.2,7.5-0.2,11.2-0.1c9.5,0.3,19,1.2,28.4,2.9c15,2.5,29.6,6.5,43.9,11.8
				c20.4,7.5,39.4,18.1,56.6,31.3c17.6,13.7,32.8,30.2,44.8,49c9,14,16.2,29.1,21.5,44.9c2.4,7.1,4.5,14.4,6.2,21.7
				c1.3,5.6,2.5,11.1,3.4,16.8c0.6,3.6,1.1,7.1,1.6,10.7c0.6,4.4,0.9,8.8,1.3,13.3C368,202.8,368.1,203.2,368.2,203.5L368.2,203.5z"
				/>
		</g>
		<g id="green">
			<path class="st1" d="M338.4,302.2c21.7-7.5,44.3-12.8,66.4-18.5c21.1-5.4,41.9-12.1,63-17.4c23.4-5.9,47.2-11.4,71.4-12.1
				c11.7-0.3,25.1,0.5,35.4,6.7c10,6.1,15.8,16.6,18.3,27.9c5,22.4-2.2,49.9-16.1,67.9c-14.8,19-38.1,23.8-60.6,27.2
				c-24,3.6-48.8,4.1-72.2,11.4c-11.5,3.6-23.3,7-35,10.3c-11.3,3.1-23.3,5.5-35.1,4.6c-26.4-2.1-47.4-24.8-59-47
				c-5.9-11.3-12.1-26.6-7.7-39.4C311.7,310.8,326.9,306.5,338.4,302.2z"/>
		</g>
		<g id="blue">
			<path class="st2" d="M134.4,410.6c-14.7-0.6-29.5-0.6-44.2-1.3c-6.4-0.3-12.9-1.1-18.9-3.6c-5.1-2.3-9.8-5.4-13.8-9.3
				C40.8,381,32,358,24.6,337.1C14.7,309.6,8,280.8,3.1,251.9c-1-6-2.1-12-2.8-18C0.3,233,0,230.2,0,230.2l2.8-1.4
				c9.2-4.7,18.5-9.2,27.8-13.6c26-12.4,52.6-24.1,80.8-30.8c25-5.9,52.9-7.3,75.7,6.5c20.7,12.5,33.4,34.5,42.1,56.4
				c10.3,26,16.3,54,15.8,82c-0.3,21.3-4.8,44.5-21,59.6c-18.6,17.4-46.8,20.4-71.1,21.2C146.7,410.5,140.5,410.5,134.4,410.6z"/>
		</g>
	</g>
</g>
</svg>
