<svg id="Layer_1" data-name="Layer 1" xmlns="http://www.w3.org/2000/svg" viewBox="0 0 1024 128"><defs><style>.cls-1{fill:#349a46;}.cls-2{fill:#35459c;}.cls-3{fill:#ed2024;}</style></defs><g id="main-spritesheet"><g id="green"><path class="cls-1" d="M274.55.46c10.05-.55,20.24-.05,30.27.25,9.57.29,19.15,0,28.71.3,10.58.37,21.31.91,31.61,3.57,5,1.29,10.55,3.25,14.11,7.12s4.66,8.94,4.36,14c-.61,10-7,20.81-15.05,26.69-8.53,6.23-19,5.44-28.89,4.14-10.58-1.39-21.1-4.18-31.85-3.93-5.31.13-10.68.16-16,.1-5.13-.06-10.52-.5-15.36-2.31-10.9-4.08-17-16.19-19.22-27-1.13-5.49-1.9-12.69,1.54-17.56S269.16.9,274.55.46Z"/></g><g id="blue"><path class="cls-2" d="M70.19,120.59c-7.7-.3-15.41-.29-23.1-.69a28.32,28.32,0,0,1-9.86-1.9A26.27,26.27,0,0,1,30,113.16c-8.7-8-13.27-20-17.18-30.93A260,260,0,0,1,1.63,37.71C1.11,34.58.55,31.45.2,28.29c-.05-.43-.2-1.91-.2-1.91l1.46-.74c4.8-2.46,9.65-4.8,14.53-7.12C29.59,12.06,43.47,5.93,58.18,2.45,71.24-.64,85.81-1.34,97.71,5.84c10.82,6.53,17.47,18,22,29.46A112.13,112.13,0,0,1,128,78.16c-.18,11.13-2.49,23.23-11,31.15-9.74,9.09-24.46,10.67-37.16,11.11C76.63,120.53,73.41,120.56,70.19,120.59Z"/></g><g id="red"><path class="cls-3" d="M218.91,90.32l-.21,2.21c0,.35-.07.71-.1,1.06-.13,1.61-.36,3.21-.6,4.81s-.47,2.91-.78,4.35A54.19,54.19,0,0,1,212.75,116a25.61,25.61,0,0,1-4.93,6.92,16.05,16.05,0,0,1-13.18,4.63,23.13,23.13,0,0,1-9.66-3.44,37.73,37.73,0,0,1-7.17-5.74,61.76,61.76,0,0,1-8.05-10.24,140.54,140.54,0,0,1-7.51-13.39c-2.77-5.57-5.31-11.24-7.75-17-3.09-7.22-6-14.51-9-21.79q-3.75-9.21-7.67-18.33c-1.53-3.58-3-7.15-4.47-10.77a95.23,95.23,0,0,1-3.48-10.08,35.88,35.88,0,0,1-1-4.91,14.74,14.74,0,0,1,0-4.09,7,7,0,0,1,3.58-5.31,12.59,12.59,0,0,1,3.7-1.32A26.31,26.31,0,0,1,141.69.7c1.12,0,2.24,0,3.36.13,1.45.12,2.89.3,4.32.53a76.51,76.51,0,0,1,10.76,2.56A93.76,93.76,0,0,1,176.4,10.7a82.63,82.63,0,0,1,20.17,15A76.14,76.14,0,0,1,211.3,46.79a78.56,78.56,0,0,1,6,18.38c.56,2.87,1,5.77,1.28,8.68.21,2.21.38,4.41.45,6.63,0,1.39,0,2.79.06,4.18,0,1.73-.1,3.45-.17,5.17,0,.16,0,.33,0,.49Z"/></g><path class="cls-2" d="M474.36,69.65c0-3.61,0-7.22,0-10.83a3.81,3.81,0,0,1,5.22-3.64L502.44,64,507.77,66a3.82,3.82,0,0,1,0,7.24q-14,5.39-28,10.77a3.85,3.85,0,0,1-5.36-2.66,5.38,5.38,0,0,1-.08-1.13Z"/><path class="cls-2" d="M421.13,69.56c0,4,0,7.92,0,11.87a2.71,2.71,0,0,1-2.1,2.82,3.19,3.19,0,0,1-1.95-.17q-6.19-2.4-12.4-4.77l-18.29-7a2.84,2.84,0,0,1,0-5.41L417.26,55a2.78,2.78,0,0,1,3.79,1.88,4.43,4.43,0,0,1,.08,1Z"/><path d="M448.62,39.41H437.83a5.05,5.05,0,0,1-5.08-4,5.17,5.17,0,0,1,.27-3q5.43-14.13,10.87-28.25a5.09,5.09,0,0,1,9.55,0q5.44,14.19,10.89,28.39a5.07,5.07,0,0,1-4.78,6.89Zm.05-1.24H459.6A3.84,3.84,0,0,0,463.22,33c-.32-.9-.68-1.79-1-2.68l-9.91-25.8a3.87,3.87,0,0,0-7.28,0c-.38,1-.76,2-1.13,3Q439,20.18,434.15,32.85a3.84,3.84,0,0,0,3.68,5.32Z"/><path d="M447.59,50.86c3.5,0,7,.06,10.49,0a4.34,4.34,0,0,1,4.1,5.92c-2.58,6.64-5.11,13.29-7.67,19.93-1,2.53-1.94,5-2.92,7.58a4.28,4.28,0,0,1-8.06,0q-2.75-7.09-5.46-14.2c-1.71-4.44-3.39-8.88-5.12-13.31A4.32,4.32,0,0,1,437,50.85C440.54,50.91,444.07,50.86,447.59,50.86Zm0,1.19H437a3.09,3.09,0,0,0-3,4.27Q439.36,70,444.64,83.78a4,4,0,0,0,.58,1,3.07,3.07,0,0,0,5.26-1Q455.76,70.08,461,56.34a3.09,3.09,0,0,0-3-4.29Z"/><polygon class="cls-3" points="639 0 512.11 48.27 512.11 63.88 639 112 639 0"/><polygon class="cls-1" points="639.94 0 767 48.27 767 63.88 639.94 112 639.94 0"/></g></svg>