<svg xmlns="http://www.w3.org/2000/svg" viewBox="0 0 594.5 410.58"><defs><style>.cls-1{fill:#ed2024;}.cls-2{fill:#349a46;}.cls-3{fill:#35459c;}</style></defs><g id="Layer_2" data-name="Layer 2"><g id="master_copy" data-name="master copy"><g id="red"><path class="cls-1" d="M368.21,203.53l.24,5.71c0,.91.05,1.83.1,2.74.2,4.16.16,8.32.1,12.48-.06,3.8-.22,7.6-.52,11.39-.94,12.06-2.85,23.94-6.88,35.39A66,66,0,0,1,351,290.6a41.2,41.2,0,0,1-32.08,16.33c-9.07.29-17.6-1.92-25.84-5.5a96.75,96.75,0,0,1-20.25-12.2,158.66,158.66,0,0,1-24.07-23.42A361.85,361.85,0,0,1,225,234.17c-9-13.25-17.4-26.87-25.58-40.63-10.35-17.39-20.32-35-30.35-52.58q-12.68-22.25-25.82-44.21c-5.12-8.6-10.22-17.22-15.1-26a249.34,249.34,0,0,1-12.32-24.57A93.17,93.17,0,0,1,111.67,34a37.82,37.82,0,0,1-1.33-10.46,17.89,17.89,0,0,1,7.35-14.78,33.19,33.19,0,0,1,9-4.65A69,69,0,0,1,140.45,1c2.87-.37,5.74-.68,8.63-.82,3.73-.19,7.47-.21,11.2-.12a198.5,198.5,0,0,1,28.37,2.87A241.81,241.81,0,0,1,232.5,14.69,213.1,213.1,0,0,1,289.11,46,196.56,196.56,0,0,1,333.93,95a202,202,0,0,1,21.51,44.9q3.63,10.72,6.23,21.74c1.31,5.55,2.47,11.14,3.41,16.77.58,3.55,1.07,7.1,1.58,10.66.63,4.41.93,8.84,1.33,13.26,0,.42.1.84.15,1.26Z"/></g><g id="green"><path class="cls-2" d="M338.36,302.19c21.66-7.52,44.27-12.84,66.42-18.5,21.12-5.39,41.9-12.1,63-17.39,23.38-5.86,47.21-11.42,71.43-12.07,11.66-.31,25.12.47,35.36,6.7,10,6.12,15.82,16.63,18.33,27.87,5,22.37-2.18,49.91-16.14,67.88-14.76,19-38.12,23.84-60.64,27.23-24,3.61-48.81,4.11-72.18,11.43-11.55,3.61-23.27,7.05-35,10.27-11.27,3.11-23.33,5.54-35.06,4.62-26.43-2.08-47.39-24.76-59.05-47-5.93-11.32-12.13-26.58-7.68-39.4C311.72,310.84,326.85,306.53,338.36,302.19Z"/></g><g id="blue"><path class="cls-3" d="M134.38,410.58c-14.74-.57-29.51-.57-44.24-1.32-6.4-.33-12.93-1.09-18.87-3.65a49.68,49.68,0,0,1-13.81-9.27C40.79,381,32,358,24.56,337.14,14.68,309.58,8,280.75,3.13,251.91c-1-6-2.07-12-2.76-18C.28,233,0,230.22,0,230.22l2.79-1.43c9.2-4.7,18.48-9.19,27.82-13.62,26-12.37,52.62-24.11,80.78-30.77,25-5.92,52.9-7.26,75.68,6.49,20.71,12.49,33.44,34.49,42.14,56.4,10.31,26,16.26,54,15.82,82-.34,21.32-4.76,44.49-21,59.65-18.65,17.4-46.84,20.41-71.15,21.25C146.71,410.45,140.54,410.51,134.38,410.58Z"/></g></g></g></svg>