<svg xmlns="http://www.w3.org/2000/svg" viewBox="0 0 960.48 957.19"><g id="Layer_2" data-name="Layer 2"><g id="flattened_uppercase" data-name="flattened uppercase"><path d="M960.48,684.19a20,20,0,0,0-40,0V888.9L454.62,423.05a20,20,0,0,0-28.29,28.28L892.19,917.19H686.48a20,20,0,0,0,0,40h250c.68,0,1.35,0,2-.1s1.32.1,2,.1a20,20,0,0,0,19.92-21.54c0-.49.08-1,.08-1.46Z"/><path d="M9,779.43q-4.87-.33-7.08-2.89T0,769.09q.33-4.87,2.91-7.16c1.71-1.51,4.18-2.16,7.39-1.94l24.18,1.64,2.66-39L13,721q-4.87-.33-7.09-2.9c-1.47-1.71-2.1-4.22-1.87-7.51s1.19-5.65,2.9-7.19,4.18-2.2,7.39-2l70.61,4.81c3.21.21,5.55,1.19,7,2.92s2.1,4.25,1.88,7.55-1.19,5.63-2.91,7.15-4.15,2.17-7.32,2L53.29,723.7l-2.66,39,30.31,2.06c3.21.22,5.55,1.18,7,2.9s2.1,4.21,1.88,7.51-1.19,5.62-2.91,7.12-4.15,2.13-7.32,1.92Z"/><path d="M90.41,625.73q.9-5.19,3.31-7.46a8.13,8.13,0,0,1,11.85,2.07c1.05,2,1.28,4.69.7,8.11L97.8,677.79q-1.12,6.59-4.41,8.64t-11.15.7L22.94,677Q15,675.58,12.6,672.57T11.32,663l8-46.86q.88-5.15,3.27-7.44A6.73,6.73,0,0,1,28.78,607a6.42,6.42,0,0,1,5.06,3.58q1.44,2.94.55,8.09L27.6,658.23,46,661.4l6.11-35.58c.59-3.42,1.64-5.88,3.17-7.38a6.55,6.55,0,0,1,6-1.61,6.38,6.38,0,0,1,5,3.57q1.42,3,.56,8l-6.1,35.57,22.37,3.84Z"/><path d="M107.71,585.82q4.65,1.3,6.28,4.28t.29,7.73c-.88,3.14-2.32,5.26-4.3,6.38s-4.51,1.23-7.57.37L39.47,586.8q-7.74-2.17-9.82-5.44t-.27-9.7l9.27-32.82q4.22-14.93,12.15-20.44t20.08-2.08q7.74,2.19,11.91,7.14a18.21,18.21,0,0,1,4.21,12,15.87,15.87,0,0,1,7.25-6.37,18.1,18.1,0,0,1,10.08-.63q2.43.42,6.24,1.36a33.87,33.87,0,0,0,5.28,1c1,.12,2.57.21,4.59.29a20.51,20.51,0,0,1,4.18.45,7.35,7.35,0,0,1,5,4.16,10.72,10.72,0,0,1,.2,7.4q-1.67,5.89-5.5,7.51t-16.93-1.07q-10.36-2.11-13.54,0T88.67,559l-5.61,19.88ZM46,568.4l22.35,6.31,6.23-22q2-7.18.28-11.32t-7.53-5.77q-5.51-1.55-9.27,1t-5.6,9Z"/><path d="M145.35,455.67q2-4.87,4.86-6.56a8.15,8.15,0,0,1,11.11,4.62q.88,3.25-1.11,8.07l-19.09,46.27q-2.55,6.18-6.2,7.46t-11-1.77L68.27,490.82q-7.44-3.07-9.12-6.55T60,474.6l18.13-44q2-4.81,4.83-6.53a6.71,6.71,0,0,1,6.36-.27,6.44,6.44,0,0,1,4.15,4.61q.75,3.19-1.24,8L76.93,473.58l17.29,7.13L108,447.35q2-4.82,4.71-6.51a6.54,6.54,0,0,1,6.25-.24,6.39,6.39,0,0,1,4.11,4.58q.73,3.19-1.2,7.9L108.1,486.44l21,8.66Z"/><path d="M111.2,400.71a5.81,5.81,0,0,1,.1,2.41,8.8,8.8,0,0,1-.9,2.53,8.7,8.7,0,0,1-5.08,4.66,9,9,0,0,1-7-.95,9.37,9.37,0,0,1-5.08-6,11.29,11.29,0,0,1,1.2-8.31,10.5,10.5,0,0,1,7.73-5.76q5.28-1,11.42,2.16a20.24,20.24,0,0,1,10.23,12.12q2.73,8.25-.81,15.11a3.2,3.2,0,0,1-1.92,1.76,3.65,3.65,0,0,1-2.71-.46c-1.38-.7-1.88-2.63-1.51-5.77.15-1.42.24-2.5.27-3.26a12.23,12.23,0,0,0-1-5.95,7.93,7.93,0,0,0-3.63-3.76c-.31-.16-.58-.28-.78-.36A4.35,4.35,0,0,0,111.2,400.71Z"/><path d="M162.3,318.23a7.49,7.49,0,0,1,3.62,5.13,9,9,0,0,1-1.56,6.48c-1.83,2.86-5.21,4.59-10.17,5.19-1.24.18-2.2.31-2.86.39a15.59,15.59,0,0,0-6.88,3.13,27,27,0,0,0-6,6.94q-4.08,6.39-4,11.43a8.91,8.91,0,0,0,4.38,7.75q5.82,3.72,17.51-8.06,2.87-2.82,4.41-4.36,7.43-7.32,11.2-10.52a49.56,49.56,0,0,1,7-5.09,20.91,20.91,0,0,1,11.48-3.05,24.11,24.11,0,0,1,11.72,4.12q11,7,12.08,19.5t-8.2,27a60.51,60.51,0,0,1-10.1,12.4,46.39,46.39,0,0,1-12,7.75,23.59,23.59,0,0,1-9.4,2.05,14.23,14.23,0,0,1-7.87-2,8.69,8.69,0,0,1-4.08-5.5,8.56,8.56,0,0,1,1.34-6.7q2.78-4.34,10.35-4.69c1.94-.09,3.42-.21,4.46-.36a17.1,17.1,0,0,0,7.78-3.32,28.34,28.34,0,0,0,6.61-7.49q4.89-7.65,5-13.09a9.35,9.35,0,0,0-4.64-8.46q-6.63-4.23-23.74,13.17l-1,1q-13.15,13.43-21.51,15.77t-17.64-3.59q-10.5-6.69-11.26-18.4t8.38-26a57.31,57.31,0,0,1,9-11,38.17,38.17,0,0,1,10.44-7,22.67,22.67,0,0,1,8.91-2.1A12.82,12.82,0,0,1,162.3,318.23Z"/><path d="M203.2,263.16c-2.22,2.32-4.34,3.61-6.34,3.86s-3.93-.52-5.79-2.31a7.08,7.08,0,0,1-2.55-5.78q.25-3.1,3.51-6.49l40.83-42.58q3.28-3.44,6.36-3.8a7.15,7.15,0,0,1,5.86,2.32,7,7,0,0,1,2.5,5.7q-.26,3.06-3.54,6.5l-13.67,14.25,45.87,44c2.33,2.23,3.5,4.47,3.54,6.73s-1.08,4.57-3.34,6.92-4.52,3.56-6.81,3.63-4.58-1-6.88-3.21l-45.88-44Z"/><path d="M260.26,195.38c-2-2.57-2.84-5-2.54-7.22s1.74-4.36,4.31-6.35,5-2.86,7.28-2.58,4.4,1.68,6.36,4.23l14.84,19.17,30.94-23.94-14.84-19.17c-2-2.58-2.84-5-2.54-7.23s1.76-4.37,4.37-6.39,5-2.86,7.3-2.6,4.42,1.67,6.39,4.21l43.31,56q3,3.83,2.47,7.2c-.31,2.25-1.78,4.39-4.39,6.41s-5,2.86-7.28,2.58-4.38-1.67-6.32-4.18l-18.59-24L300.39,215.4l18.59,24c2,2.54,2.8,4.94,2.5,7.18s-1.75,4.37-4.36,6.39-5,2.85-7.26,2.56-4.35-1.69-6.3-4.2Z"/><path d="M430.85,157.16c3.06-1.72,5.69-2.43,7.87-2.14a8.15,8.15,0,0,1,5.87,10.51q-1.32,3.1-5.87,5.65l-43.64,24.51q-5.83,3.27-9.49,2T378,189.49L348.56,137q-3.93-7-3.11-10.79t6.67-7.06L393.57,95.9q4.55-2.55,7.84-2.14a6.7,6.7,0,0,1,5.15,3.73,6.43,6.43,0,0,1,.42,6.19q-1.39,3-5.94,5.52l-35,19.65,9.16,16.31,31.47-17.67q4.54-2.55,7.74-2.19a6.55,6.55,0,0,1,5.06,3.69,6.38,6.38,0,0,1,.38,6.13q-1.39,3-5.83,5.46l-31.47,17.67L393.66,178Z"/><path d="M532.53,59a7.52,7.52,0,0,1-.35,6.27,9,9,0,0,1-5.25,4.12q-4.8,1.66-11.19-2.24l-2.49-1.47a15.48,15.48,0,0,0-7.33-1.81,27,27,0,0,0-9.05,1.68q-7.17,2.49-10.21,6.5a8.93,8.93,0,0,0-1.37,8.8q2.25,6.54,18.73,4.55l6.16-.69q10.37-1.12,15.31-1.3a49.61,49.61,0,0,1,8.67.37,20.89,20.89,0,0,1,10.9,4.73A24,24,0,0,1,551.7,99q4.26,12.33-2.63,22.79t-23.19,16.1a60.2,60.2,0,0,1-15.62,3.46A46.05,46.05,0,0,1,496,140a23.49,23.49,0,0,1-8.64-4.22,14.24,14.24,0,0,1-4.93-6.46,8.67,8.67,0,0,1,.22-6.85,8.56,8.56,0,0,1,5.2-4.42q4.88-1.68,11,2.74,2.35,1.69,3.72,2.49a17.13,17.13,0,0,0,8.16,2.22,28.28,28.28,0,0,0,9.84-1.77q8.57-3,12-7.19a9.33,9.33,0,0,0,1.61-9.51q-2.58-7.42-26.79-4.4l-1.37.16q-18.66,2.37-26.66-1T467.82,88.05q-4.06-11.77,2.59-21.42t22.72-15.22A57.27,57.27,0,0,1,507,48.33a37.72,37.72,0,0,1,12.53,1,22.24,22.24,0,0,1,8.28,3.87A12.92,12.92,0,0,1,532.53,59Z"/><path d="M554.19,43.74c-.82-3.15-.64-5.7.52-7.64S558,32.78,561.18,32s5.72-.65,7.7.49,3.38,3.28,4.18,6.4l17.73,68.51c.81,3.12.63,5.64-.53,7.58s-3.33,3.33-6.53,4.16-5.66.63-7.64-.52-3.37-3.26-4.17-6.33Z"/><path d="M599,39.81q-4.74.88-7.4-.56c-1.78-1-2.9-2.71-3.38-5.25a7.11,7.11,0,0,1,1.3-6.18q2-2.37,6.63-3.24l58-10.85c3.12-.58,5.58-.38,7.38.62a7.12,7.12,0,0,1,3.41,5.3,7,7,0,0,1-1.28,6.09q-2,2.34-6.66,3.22l-19.42,3.63,11.69,62.48c.59,3.16.25,5.67-1,7.52s-3.54,3.09-6.74,3.69-5.76.26-7.66-1-3.13-3.49-3.72-6.61L618.42,36.17Z"/><path d="M748.85,74.73q5.25-.54,8.07,1.18a7.1,7.1,0,0,1,3.25,5.74,7.12,7.12,0,0,1-2,6.23q-2.45,2.31-7.63,2.85l-49.79,5.1q-6.66.69-9.51-1.93t-3.67-10.55L681.38,23.5q-.81-8,1.45-11.14t8.92-3.82l47.3-4.85c3.45-.35,6.13,0,8,1.16a6.71,6.71,0,0,1,3.24,5.47,6.43,6.43,0,0,1-2.08,5.84c-1.65,1.45-4.19,2.35-7.65,2.7L700.66,23l1.91,18.61,35.91-3.68c3.45-.36,6.11,0,8,1.06a6.56,6.56,0,0,1,3.18,5.4,6.4,6.4,0,0,1-2.1,5.78c-1.64,1.45-4.14,2.34-7.51,2.69L704.1,56.5l2.32,22.58Z"/><path d="M773,28.73c-.25-1.7-.45-3.38-.61-5s-.29-3.31-.36-4.93c-.19-4.09-.26-6.94-.23-8.55a28.82,28.82,0,0,1,.3-4,6.21,6.21,0,0,1,3-4.34A12.25,12.25,0,0,1,781.3,0q5.78-.25,8.1,2.55t2.83,14q.15,3.21.12,6.16c0,2-.08,3.69-.18,5.17L789.8,59c-.21,2.11-.7,3.56-1.48,4.33a8.16,8.16,0,0,1-8.23.35q-1.33-1.08-1.86-4.15ZM774.45,81a9,9,0,0,1,2.76-7,11.27,11.27,0,0,1,14.95-.72A9.12,9.12,0,0,1,795.53,80a8.84,8.84,0,0,1-2.81,6.9,11,11,0,0,1-14.78.65A8.75,8.75,0,0,1,774.45,81Z"/></g></g></svg>