<?xml version="1.0" encoding="utf-8"?>
<!-- Generator: Adobe Illustrator 23.0.4, SVG Export Plug-In . SVG Version: 6.00 Build 0)  -->
<svg version="1.1" id="Layer_1" xmlns="http://www.w3.org/2000/svg" xmlns:xlink="http://www.w3.org/1999/xlink" x="0px" y="0px"
	 width="1084px" height="423.3px" viewBox="0 0 1084 423.3" style="enable-background:new 0 0 1084 423.3;" xml:space="preserve">
<style type="text/css">
	.st0{fill:#349A46;}
	.st1{fill:#35459C;}
	.st2{fill:#ED2024;}
	.st3{fill:#FFFFFF;}
</style>
<g id="green_3_">
	<path class="st0" d="M587.6,107.7c44.7-2.4,89.9-0.2,134.5,1.1c42.5,1.3,85.1-0.1,127.6,1.4c47,1.6,94.7,4,140.5,15.9
		c22,5.7,46.9,14.4,62.7,31.6c15.6,16.9,20.7,39.7,19.4,62.2c-2.7,44.6-31,92.4-66.8,118.6C967.4,366,921,362.5,877,356.7
		c-47-6.2-93.8-18.6-141.5-17.5c-23.6,0.6-47.4,0.7-71.1,0.4c-22.8-0.3-46.7-2.2-68.2-10.2c-48.4-18.1-75.5-72-85.4-119.9
		c-5-24.4-8.4-56.4,6.8-78C533,109.5,563.7,109.6,587.6,107.7z"/>
</g>
<g id="blue_4_">
	<path class="st1" d="M223.7,394c-24.5-1-49.1-0.9-73.7-2.2c-10.7-0.5-21.5-1.8-31.4-6.1c-8.5-3.7-16.2-9.2-23-15.4
		c-27.7-25.6-42.3-63.9-54.8-98.6c-16.5-45.9-27.6-93.9-35.7-141.9c-1.7-10-3.4-20-4.6-30C0.5,98.4,0,93.7,0,93.7l4.6-2.4
		C20,83.5,35.4,76,51,68.7c43.4-20.6,87.6-40.1,134.5-51.2c41.6-9.8,88.1-12.1,126,10.8c34.5,20.8,55.7,57.4,70.2,93.9
		c17.2,43.3,27.1,89.9,26.3,136.6c-0.6,35.5-7.9,74.1-35,99.3c-31.1,29-78,34-118.5,35.4C244.3,393.8,234,393.9,223.7,394z"/>
</g>
<g id="red_3_">
	<path class="st2" d="M608.1,285.7c-0.2,2.3-0.4,4.7-0.6,7c-0.1,1.1-0.2,2.3-0.3,3.4c-0.4,5.1-1.2,10.2-1.9,15.3
		c-0.7,4.7-1.5,9.3-2.5,13.9c-3.1,14.6-7.4,28.9-14.2,42.3c-4.1,8.1-9.1,15.7-15.7,22.1c-6.8,6.6-14.6,11.2-23.8,13.6
		c-6,1.5-12,1.8-18.2,1.2c-11.2-1.1-21.3-5.2-30.8-11c-8.4-5.1-15.9-11.3-22.8-18.3c-9.8-9.9-18.1-21-25.7-32.7
		c-8.9-13.7-16.6-28.1-23.9-42.7c-8.9-17.7-16.9-35.8-24.7-54c-9.8-23-19.2-46.3-28.6-69.5c-7.9-19.6-16.1-39-24.4-58.4
		c-4.9-11.4-9.7-22.8-14.3-34.3c-4.2-10.6-8.1-21.2-11.1-32.1c-1.4-5.1-2.5-10.3-3.2-15.6c-0.5-4.4-0.6-8.7,0.1-13
		c1.1-7.4,4.8-13.2,11.4-16.9c3.7-2.1,7.7-3.4,11.8-4.2C350.2,0.4,356,0,361.9,0c3.6,0,7.2,0.1,10.7,0.4c4.6,0.4,9.2,1,13.8,1.7
		c11.6,1.8,23.1,4.7,34.3,8.2c18,5.6,35.3,12.8,51.9,21.6c23.8,12.7,45.3,28.5,64.3,47.7c19.5,19.8,35.1,42.2,47,67.3
		c8.8,18.7,15.1,38.3,19,58.6c1.8,9.2,3.2,18.4,4.1,27.7c0.7,7,1.2,14.1,1.4,21.1c0.1,4.4,0.2,8.9,0.2,13.3c0,5.5-0.3,11-0.5,16.5
		C608,284.7,608,285.2,608.1,285.7C608,285.7,608,285.7,608.1,285.7z"/>
</g>
<g>
	<path class="st3" d="M174,248.2c0,3.6-2.2,6.7-6.5,9.4c-4.3,2.7-8.8,4.1-13.4,4.1c-5.7,0-9.7-1.5-12.1-4.6
		c-1.9-2.5-2.8-5.9-2.8-10.1c0-1.7,0.3-4.5,0.9-8.5c0.2-1.7,0.4-2.9,0.4-3.7c0-2.1-0.7-4.2-2.1-6.2c-1.4-2-3-3-4.7-3
		c-2.5,0-4.1,1-4.9,3c-0.8,2-1.2,4.7-1.2,8.2c0,1.3,0,2.6,0,3.8s0,2.5,0,3.6c0,0.6,0,1.2,0,1.8c-0.2,0.8-0.4,1.4-0.4,1.6
		c-1.2,4.9-3.9,8.7-8.2,11.6c-3.6,2.4-7.4,3.6-11.4,3.6c-6.5,0-11.2-2.6-14.1-7.7c-2.3-4-3.4-9.6-3.4-16.6c0-7.1,2.7-16.8,8-29
		c2.6-6.1,3.9-12,3.9-18c0-1.5-1.1-7.8-3.4-18.7c-1.2-5.7-1.8-10.4-1.8-14.1c0-6.4,3-12.2,8.9-17.3c5.1-4.4,9.7-6.6,13.9-6.6
		c3.8,0,7.5,1.8,11,5.3c4.6,4.6,6.9,10.8,6.9,18.5c-0.6,3.4-1.1,6.2-1.4,8.4c-1.2,5.8-2.7,11.1-4.6,15.8v2.7l1.2,0.5
		c1.9-0.9,4.3-1.8,7.2-2.6c2.9-0.8,6.3-1.2,10.2-1.2c5.3,0,10.1,1.8,14.4,5.5c5,4.3,7.5,10,7.5,17.1c0,5.2-1,10.6-3,16
		c-1.1,3-1.6,5.2-1.6,6.8c0,2.4,1.1,6.5,3.2,12.3C171.3,241.9,172.5,244.7,174,248.2z"/>
	<path class="st3" d="M256.1,237.5c0,4.7-3.1,10-9.3,15.8c-6.2,5.8-12.3,8.7-18.3,8.7c-1.7,0.2-3.6,0.5-5.8,0.7
		c-2.2,0.2-4.7,0.4-7.4,0.4c-0.8,0-1.7,0-2.5,0c-1.1,0-1.8,0-2.3,0c-7.8-1.2-13.6-3.2-17.4-5.9c-4.4-3.2-7.9-8.2-10.4-14.8
		c-2.6-6.7-3.8-13.9-3.8-21.8c0-15.5,4.3-27.4,12.8-35.7c7.9-7.9,18.6-11.8,32-11.8c8.9,0,16.2,2.4,22,7.2
		c5.8,4.8,8.6,11.2,8.6,19.1c0,4.6-2.7,8.9-8,12.9c-5.3,4-12.2,6-20.5,6c-5.1,0-8.6-0.2-10.5-0.7c-3.2-0.8-6.2-2.7-9.1-5.7
		c-0.2,0.8-0.5,1.9-0.9,3.2c-0.4,1.3-0.5,2.4-0.5,3.4c0,2,0.7,4.3,2,6.9c1.3,2.6,3.4,4.6,6.2,5.9c2.8,1.3,5.7,2,8.5,2
		c0.8,0,3.7-1.7,8.5-5c4.9-3.3,8.7-5,11.4-5c4.6,0,8.2,1.2,10.8,3.5C254.8,229.1,256.1,232.7,256.1,237.5z M232.2,193.7
		c0-2-1.3-3.3-3.9-3.9c-0.8-0.1-2.1-0.2-3.9-0.4c-1.2,0-2.4,0.7-3.6,2c-1.2,1.3-1.7,3-1.4,5.2c0.4,0.8,0.7,1.4,1.1,1.8
		c1.1,1.2,2.6,1.8,4.6,1.8c1.2,0,2.1-0.1,2.8-0.4c2.3-0.6,3.6-2.1,4.1-4.5C232,195,232.1,194.5,232.2,193.7z"/>
	<path class="st3" d="M343.5,231.7c0,5.9-1.4,11.6-4.3,16.9c-4,7.6-10.1,11.4-18.2,11.4c-3.8,0-7.1-1-10-3c-2.8-2-4.3-4.7-4.3-8
		c0-0.9,0.5-4.1,1.6-9.4c0.4-1.8,0.9-4.4,1.6-7.8c0-3.8-1.3-7.2-4-10.2c-2.7-3-5.2-4.5-7.6-4.5c-1.1,0-2.4,1.4-3.9,4.1
		c-1.5,2.7-2.3,5.5-2.3,8.4c0,1.7,0.8,4.9,2.5,9.6c0.8,2.4,1.2,4.5,1.2,6.4c0,6.1-2,10.5-5.9,13.2c-3.2,2.3-7.4,3.4-12.5,3.4
		c-4.5,0-8.3-1.5-11.5-4.4c-3.1-2.9-4.7-6.7-4.7-11.3c0-3.1,1.2-8.3,3.7-15.5c1.3-3.8,2-7.1,2-9.8c0-1.2-0.9-5.4-2.7-12.5
		c-1-3.8-1.4-6.5-1.4-8.2c0-5.2,1.2-9.8,3.6-13.8c2.4-4,5.8-6,10.2-6c4.5,0,8,2,10.6,5.9c2.6,3.9,4.1,5.9,4.4,5.9
		c2.2-2.1,5-4,8.3-5.7c3.3-1.7,7-2.5,11.2-2.5c8.6,0,15.8,2.9,21.5,8.6c5.7,5.8,9.1,13.6,10.2,23.6c0.1,1.5,0.2,2.9,0.3,4
		c0.1,1.1,0.1,2,0.1,2.8c0,1.7,0,3.3,0,4.8C343.5,229.5,343.5,230.7,343.5,231.7z"/>
	<path class="st3" d="M433,186.4c0,5.1-2.8,10.4-8.5,16c-5.7,5.6-11.3,8.4-16.7,8.4c-1.8,0-3.9-0.4-6.2-1.1c-2.4-0.7-4-1.1-5-1.1
		c-3,0-5.3,1.2-6.9,3.5c-1.7,2.3-2.5,5.3-2.5,9c0,0.2,0.4,3.6,1.2,10.1c0.5,3.7,0.7,7.5,0.7,11.4c0,7.4-2,12.7-6.1,16
		c-3,2.5-6.9,3.7-11.7,3.7c-4.2,0-8.6-2-13.4-5.9c-4.7-3.9-7.1-7.9-7.1-12.1c0-1.8,0.9-6.2,2.8-13.2c1.8-7,2.8-11.3,2.8-12.8
		c0-1.8-0.8-6-2.3-12.6c-0.8-3.6-1.2-6.2-1.2-7.8c0-6.1,1.4-11.6,4.3-16.7c3.3-5.9,7.5-8.9,12.6-8.9c3.7,0,6.8,1.1,9.4,3.4
		c1.4,1.2,3.6,3.9,6.6,8c1.3-0.6,5.3-3,11.9-7.3c4.7-3.1,9.3-4.6,13.7-4.6C425.8,171.9,433,176.7,433,186.4z"/>
	<path class="st3" d="M531.6,201.9c0,4.5-2.7,9.5-8.2,15c-5.5,5.5-11.1,11.1-16.9,16.6c-7.7,8.3-13.6,16.9-17.8,25.9
		c-4.2,9-8.2,17.8-12.1,26.6c-4.9,7.2-12.3,10.9-22.2,10.9c-5.6,0-9.9-1-12.8-2.8c-3-1.9-4.5-5.2-4.5-9.8c0-1,0.1-1.7,0.2-2.3
		c0.6-5.2,3.2-9,7.8-11.2c5.8-2.8,9.4-5.3,10.7-7.3c1.8-2.8,3.5-6.2,5.1-10.1c1.6-3.9,2.4-6.8,2.4-8.7c0-2.3-4.6-6.1-13.7-11.6
		c-9.1-5.5-13.7-12.5-13.7-21.2c0-5.3,1.8-10,5.3-14.1c4-4.6,9.3-6.9,15.8-6.9c9.5,0,15.8,5,19,15.1c3.2,10.1,6,15.1,8.4,15.1
		c0.8,0,2.4-3.4,4.6-10.3c1.3-4,3.3-7.5,5.9-10.3c3.9-4.4,7.2-7.3,10-8.6c2.7-1.4,6.5-2,11.4-2c4.7,0,8.6,1.4,11.6,4.3
		C530.4,196.5,531.6,199.1,531.6,201.9z"/>
	<path class="st3" d="M622.7,190c0,7.1-1.8,13.3-5.3,18.4c-9.3,13.2-14,20.6-14.2,22.1c-2.3,12.5-3.5,19-3.7,19.6
		c-3.2,7.7-9.7,11.6-19.4,11.6c-9.5,0-16-3.2-19.6-9.6c-2.1-3.7-3.8-10.4-4.9-20.2c-1.1-9.8-5.7-19.2-13.8-28.4
		c-3.6-4-5.3-8.4-5.3-13c0-4.9,2.2-9.2,6.6-13c3.8-3.2,7.4-4.8,10.7-4.8c7.7,0,14.2,2,19.5,6.1c5.3,4,7.9,9.7,7.9,16.9
		c0,1.9-0.4,4.6-1.2,8c-1.9,7.8-2.8,11.8-2.8,11.9c0,1,0.5,1.9,1.4,2.8c0.6,0.6,1.1,0.9,1.6,0.9c2.5,0,4.2-1.8,5-5.3
		c0.5-2,0.7-4.2,0.7-6.4c0-2.8-0.3-6.2-0.9-10.1c0-0.6-0.1-1.4-0.4-2.3c0-6.3,2.2-11.6,6.5-15.9c4.3-4.3,9.2-6.5,14.5-6.5
		c4.7,0,8.8,1.6,12.2,4.9C621,180.9,622.7,185,622.7,190z"/>
	<path class="st3" d="M701.9,160.3c0,5.8-1.2,12.2-3.7,19c-3.4,9.5-5.3,15.1-5.7,16.9l-2.1,12.5l1.1,14.2c0.4,3.1,2.6,9.4,6.8,18.9
		c1.9,4.4,2.8,7.8,2.8,10.1c0,3.2-1.2,5.9-3.6,8c-2.4,2.1-5.5,3.2-9.4,3.2c-2.5-0.5-4.4-0.9-5.7-1.2c-4-1.2-7-2.7-8.9-4.5
		c-3.3,2.2-5.9,3.7-7.7,4.5c-1.8,0.8-4.4,1.2-7.6,1.2c-10.4,0-18.2-2.5-23.2-7.6c-5-5.1-7.6-12.3-7.6-21.9c0-11.5,2.1-21.7,6.2-30.5
		c5.1-10.7,12.1-16.1,21-16.1c0.7,0,1.7,0.2,2.8,0.5c3.9,1.2,7.5,3.6,10.9,7.3c1.5-1.4,2.3-3.1,2.3-5v-10.1
		c-0.4-1.8-0.6-3.2-0.7-4.3c-0.5-3.4-0.7-6.4-0.7-8.9c0-5.6,1.4-10.9,4.1-16c3.4-6.4,7.9-9.6,13.3-9.6c4.5,0,8.2,1.9,11,5.7
		C700.5,150.6,701.9,155.1,701.9,160.3z M665.1,218.7c0-1.9-1.2-3.9-3.7-5.9c-0.4-0.4-1-0.8-2-1.2c-2,0-3.9,0.6-5.8,1.8
		c-1.8,1.2-2.8,2.7-2.8,4.6c0,1.9,0.6,3.6,1.8,5.3c1.2,1.6,2.3,2.5,3.2,2.6c2.7,0,4.8-0.4,6.2-1.2
		C664.1,223.4,665.1,221.4,665.1,218.7z"/>
	<path class="st3" d="M735.6,251.6c0,2.8-0.9,5.3-2.6,7.2c-1.7,2-4,2.9-6.9,2.9c-3.6,0-6.6-0.8-9.2-2.5c-2.6-1.7-3.8-4-3.8-6.9
		c0-2.5,0.8-5.2,2.3-8c2-3.6,4.5-5.3,7.3-5.3c2.6,0,5.2,0.9,7.7,2.7C733.9,244.1,735.6,247.4,735.6,251.6z"/>
	<path class="st3" d="M811.9,232c0,8.3-3.3,15.2-9.8,20.6c-6.5,5.4-14.3,8.1-23.3,8.1c-4,0-8.2-0.4-12.4-1.2
		c-4.2-0.8-7.9-2.4-10.9-4.6c-2.5-1.7-5-5.5-7.5-11.6c-3.1-7.4-4.6-14.9-4.6-22.6c0-10.3,3-20.2,9.1-29.5c7-10.9,15.7-16.4,26-16.4
		c6.4,0,11.8,1,16.2,3c5.6,2.6,8.4,6.4,8.4,11.4c0,3.1-1,5.7-2.9,7.9c-2,2.2-4.5,3.3-7.7,3.3c-1.5,0-3.3-0.5-5.2-1.6
		c-1.9-1.1-3.1-1.6-3.7-1.6c-3.6,1.8-6.2,3.4-8,4.8c-5.3,4.6-8,10.4-8,17.3c0,2.8,0.5,5.9,1.5,9.2c1,3.3,2.7,4.9,5.1,4.9
		c1.4,0,4.3-2.8,8.6-8.3c4.3-5.5,9.8-8.3,16.3-8.3c4.7,0,8.2,1.5,10.3,4.6C811.1,223.8,811.9,227.4,811.9,232z"/>
	<path class="st3" d="M898.8,217.9c0,9-2.3,17.4-6.9,25.1c-7,11.7-17.7,17.5-32,17.5c-10.4,0-18.6-2.2-24.4-6.5
		c-5.8-4.3-10.1-10.9-13-19.7c-1.2-2.9-2.3-5.8-3.4-8.7c-0.8-3.4-1.2-7.5-1.2-12.1c0-13.3,3.9-23.5,11.6-30.7
		c7.2-6.7,16.7-10,28.5-10c7,0,14.8,2.4,23.3,7.2c8.5,4.8,12.8,9.7,12.8,14.7c0.4,0.4,0.6,0.7,0.7,1.1c0.6,1.2,0.9,2.4,0.9,3.7
		c0.7,1.9,1.2,3.5,1.6,4.8C898.3,208.5,898.8,213,898.8,217.9z M862.9,204.2c0-1.5-0.9-3.1-2.8-4.6c-1.8-1.5-3.2-2.3-4.2-2.3
		c-2.6,0-4.7,0.8-6.4,2.3c-2.4,2.3-3.6,4.4-3.6,6.4c0,2,1.1,3.9,3.2,5.6c2.1,1.7,4.2,2.6,6.1,2.6c2.1,0,3.9-1,5.4-2.9
		C862.1,209.3,862.9,207,862.9,204.2z"/>
	<path class="st3" d="M1033,232.2c0.1,0.2,0.2,1.4,0.2,3.6c0,2.1-0.2,4.4-0.6,6.8c-0.4,2.4-1.1,4.3-2,5.7c-3.4,4.7-6.4,7.9-8.9,9.4
		c-3.4,2.1-8.3,3.2-14.6,3.2c-5.1,0-8.5-1.5-10.3-4.6c-1.2-2.1-1.8-5.3-1.8-9.4c0-2.4,0.3-4.8,0.9-7.2c0.6-2.4,1.2-5,2-7.7
		c-1-2.5-1.7-4.3-2.3-5.5c-2-3.7-4.2-5.5-6.4-5.5c-1.5,1-2.7,1.8-3.4,2.5c-2.4,2.3-3.6,4.5-3.6,6.8c0,0.7,0.5,2,1.6,3.7
		c1.1,1.8,1.6,4,1.6,6.8c0,7.7-2.3,13.5-6.9,17.3c-4.2,3.4-9.6,5.2-16.4,5.2c-4.6,0-7.8-1.5-9.6-4.6c-1.3-2.3-2-5.6-2-10
		c0-1.9,0.2-3.8,0.6-5.8c0.4-2,0.9-4.1,1.5-6.5c0-2-0.5-4.4-1.4-7.1c-1.3-3.6-2.7-5.3-4.3-5.3c-1.4,0-2.5,0.6-3.1,1.9
		c-0.7,1.2-1,2.8-1,4.7c0,1.8,0.3,4.3,0.9,7.5c0.6,3.2,0.9,5,0.9,5.3c0,4.2-1.8,8.1-5.5,11.9c-4.5,4.6-10.3,6.9-17.3,6.9
		c-6.2,0-10.7-2.2-13.5-6.6c-2.4-3.7-3.6-8.8-3.6-15.3c0-3.9,0.9-8.2,2.7-12.8c3.9-10.1,5.9-16,5.9-17.6c0-1.9-0.5-5-1.4-9.3
		c-1-4.3-1.4-8.1-1.4-11.6c0-6.2,1.2-11.5,3.7-15.8c2.9-5.2,7.1-7.8,12.4-7.8c3.1,0,6,0.9,8.9,2.8c2.8,1.8,5.3,4.7,7.4,8.5
		c3.6-2.1,7.3-3.9,11.1-5.3c3.9-1.4,7.3-2,10.4-2c4.4,0,7.8,1.2,10.3,3.6c1.2,1.3,2.4,2.6,3.6,3.7c3.2-2.5,6.6-4.6,10.3-6.4
		c3.6-1.8,7.6-2.7,12-2.7c5.8,0,11.7,2.3,17.5,6.9c7.3,5.7,10.9,13,10.9,21.9c0,3.2-0.3,6-0.8,8.3c-0.5,2.3-1.1,4.6-1.7,6.9
		c0,1.9,0.8,5.1,2.5,9.6C1031.4,227.6,1032.8,231.4,1033,232.2z"/>
</g>
</svg>
